<mxfile host="65bd71144e">
    <diagram id="WWrYbaV2N0prlIOIM4Qx" name="Página-1">
        <mxGraphModel dx="674" dy="396" grid="1" gridSize="10" guides="1" tooltips="1" connect="1" arrows="1" fold="1" page="1" pageScale="1" pageWidth="827" pageHeight="1169" math="0" shadow="0">
            <root>
                <mxCell id="0"/>
                <mxCell id="1" parent="0"/>
                <mxCell id="6" value="" style="edgeStyle=none;html=1;" edge="1" parent="1" source="2" target="4">
                    <mxGeometry relative="1" as="geometry"/>
                </mxCell>
                <mxCell id="2" value="Algoritmo SUCESOR" style="swimlane;" vertex="1" parent="1">
                    <mxGeometry x="240" y="280" width="200" height="200" as="geometry"/>
                </mxCell>
                <mxCell id="3" value="dia: 1 Número&lt;br&gt;resultado: 1 Número" style="text;html=1;align=center;verticalAlign=middle;resizable=0;points=[];autosize=1;strokeColor=none;fillColor=none;" vertex="1" parent="2">
                    <mxGeometry x="40" y="85" width="120" height="30" as="geometry"/>
                </mxCell>
                <mxCell id="4" value="Estrucutura DÍA" style="swimlane;" vertex="1" parent="1">
                    <mxGeometry x="240" y="30" width="200" height="200" as="geometry"/>
                </mxCell>
                <mxCell id="8" value="j : 1 Número" style="text;html=1;align=center;verticalAlign=middle;resizable=0;points=[];autosize=1;strokeColor=none;fillColor=none;" vertex="1" parent="4">
                    <mxGeometry x="60" y="90" width="80" height="20" as="geometry"/>
                </mxCell>
            </root>
        </mxGraphModel>
    </diagram>
</mxfile>